<?xml version="1.0" standalone="no"?>
<!DOCTYPE svg PUBLIC "-//W3C//DTD SVG 20010904//EN"
 "http://www.w3.org/TR/2001/REC-SVG-20010904/DTD/svg10.dtd">
<svg version="1.0" xmlns="http://www.w3.org/2000/svg"
 width="900.000000pt" height="780.000000pt" viewBox="0 0 900.000000 780.000000"
 preserveAspectRatio="xMidYMid meet">

<g transform="translate(0.000000,780.000000) scale(0.100000,-0.100000)"
fill="#000000" stroke="none">
<path d="M4772 7139 c-52 -26 -105 -86 -120 -136 -6 -21 -23 -105 -37 -188
-15 -82 -27 -151 -28 -151 -1 -1 -45 -16 -97 -33 -52 -18 -136 -52 -187 -76
-51 -25 -96 -45 -100 -45 -5 0 -67 41 -138 91 -154 109 -177 119 -252 119 -88
-1 -124 -23 -264 -166 -135 -138 -153 -168 -152 -254 1 -64 19 -100 117 -238
48 -67 89 -127 92 -135 2 -7 -17 -60 -44 -117 -27 -58 -62 -143 -77 -190 -15
-47 -28 -86 -29 -87 0 0 -76 -15 -169 -32 -92 -17 -183 -38 -202 -47 -41 -19
-92 -74 -111 -120 -20 -48 -20 -388 0 -435 41 -99 96 -130 291 -164 83 -14
160 -28 171 -30 17 -4 29 -27 58 -111 20 -58 55 -142 77 -186 22 -45 39 -88
36 -97 -2 -9 -43 -71 -91 -138 -102 -144 -116 -174 -116 -248 0 -85 26 -127
163 -263 132 -130 167 -152 245 -152 74 0 105 15 256 121 l139 98 89 -45 c50
-25 135 -60 190 -79 54 -18 101 -35 104 -38 2 -2 17 -79 33 -171 34 -195 55
-241 135 -291 l49 -30 178 -3 c204 -4 243 3 300 55 59 53 74 91 103 263 15 85
30 161 34 168 4 7 48 27 97 43 50 17 135 52 189 79 l99 48 134 -94 c73 -52
150 -102 170 -111 45 -18 144 -14 188 10 29 15 250 231 279 273 8 11 20 42 27
68 21 84 2 133 -112 296 l-101 143 50 106 c28 58 63 144 79 191 15 47 28 86
29 88 1 1 75 16 165 32 189 33 204 37 253 81 74 65 81 90 81 304 0 175 -2 193
-21 230 -26 48 -68 91 -107 112 -16 8 -106 28 -200 44 -95 17 -172 31 -172 32
-18 68 -59 178 -102 268 l-55 116 101 145 c115 165 133 212 112 293 -7 26 -25
66 -41 89 -47 68 -223 234 -271 256 -49 22 -140 27 -185 10 -15 -6 -87 -53
-161 -105 -73 -52 -137 -95 -142 -95 -4 0 -55 22 -112 49 -57 27 -143 61 -191
76 l-86 27 -7 51 c-15 111 -54 296 -68 323 -22 41 -76 90 -119 108 -29 13 -78
16 -220 16 -166 0 -187 -2 -226 -21z m459 -1356 c212 -74 375 -242 447 -461
32 -99 36 -280 8 -382 -68 -249 -258 -439 -506 -507 -99 -27 -273 -25 -370 6
-131 40 -206 86 -305 185 -74 74 -98 107 -132 176 -54 112 -73 193 -73 316 0
122 19 205 70 309 72 150 193 267 345 336 101 46 173 59 310 55 103 -2 132 -7
206 -33z"/>
<path d="M6510 3187 c-36 -14 -245 -95 -465 -182 -220 -86 -424 -166 -454
-177 -66 -25 -55 -33 54 -41 84 -6 175 -33 230 -67 l33 -21 451 226 c248 124
451 229 451 234 0 18 -87 44 -160 48 -61 3 -87 -1 -140 -20z"/>
<path d="M7133 3098 c-134 -59 -1073 -552 -1069 -562 49 -109 60 -148 65 -232
l6 -90 246 150 c136 83 438 268 672 410 301 183 423 263 417 271 -5 7 -33 25
-62 40 -44 24 -67 30 -138 32 -71 3 -94 0 -137 -19z"/>
<path d="M1415 3059 c-336 -15 -399 -23 -471 -59 -122 -60 -202 -181 -211
-320 -2 -41 9 -331 26 -645 16 -314 33 -633 36 -710 4 -77 11 -167 17 -200 28
-169 179 -311 343 -323 73 -6 639 16 748 29 117 13 227 79 275 164 9 17 11 17
35 -2 43 -33 98 -41 437 -63 179 -11 386 -25 460 -30 74 -6 311 -21 525 -35
215 -14 453 -30 530 -35 1034 -74 1227 -80 1435 -42 216 39 398 104 581 206
53 30 402 269 775 532 374 263 794 558 934 656 266 186 305 220 348 303 23 44
26 62 27 145 0 112 -18 161 -87 236 -75 82 -169 124 -272 124 -81 -1 -136 -26
-396 -185 -894 -544 -1552 -933 -1610 -953 -153 -52 -168 -53 -896 -59 l-682
-6 -26 26 c-26 26 -33 66 -20 102 16 40 41 42 546 50 735 11 854 16 906 44 59
30 119 93 144 149 41 95 23 226 -42 310 -34 42 -107 89 -158 101 -26 6 -211
22 -412 36 -338 24 -390 31 -710 86 -412 72 -456 83 -658 159 -638 239 -1156
264 -1715 83 l-77 -25 -44 49 c-25 27 -70 62 -103 78 -56 28 -64 30 -203 31
-80 1 -230 -2 -335 -7z m118 -1490 c21 -5 53 -24 73 -41 117 -103 99 -289 -36
-358 -91 -46 -176 -33 -250 39 -91 88 -93 206 -7 298 62 65 135 86 220 62z"/>
</g>
</svg>
